<svg width="36" height="36" viewBox="0 0 36 36" fill="none" xmlns="http://www.w3.org/2000/svg">
<rect width="36" height="36" fill="#FF3EF9"/>
<path d="M30.9547 18.2726C30.9547 21.9702 29.6866 25.0883 27.1505 27.6545C24.5874 30.2483 21.5387 31.5453 17.9773 31.5453C14.389 31.5453 11.3403 30.2483 8.80417 27.6545C6.26805 25.0607 5 21.9426 5 18.2726C5 14.6026 6.26805 11.4845 8.80417 8.89073C11.3403 6.29691 14.389 5 17.9773 5C21.5387 5 24.5874 6.29691 27.1505 8.89073C28.4186 10.1876 29.3629 11.6225 29.9834 13.1678C30.6309 14.7406 30.9547 16.4238 30.9547 18.2726ZM18.0043 9.96689C16.8712 9.96689 15.792 10.1876 14.8207 10.6291C13.8224 11.0706 12.9861 11.6777 12.2576 12.4227C11.5291 13.1678 10.9626 14.0508 10.5309 15.0717C10.0992 16.0927 9.88337 17.1689 9.88337 18.3002C9.88337 19.4316 10.0992 20.5077 10.5309 21.5287C10.9626 22.5497 11.5291 23.4327 12.2576 24.1777C12.9861 24.9227 13.8494 25.5298 14.8207 25.9713C15.819 26.4128 16.8712 26.6336 18.0043 26.6336C19.1375 26.6336 20.1897 26.4128 21.188 25.9713C22.1862 25.5298 23.0496 24.9227 23.778 24.1777C24.5065 23.4327 25.1 22.5497 25.5047 21.5287C25.9364 20.5353 26.1523 19.4592 26.1523 18.3278C26.1523 17.1965 25.9364 16.1203 25.5047 15.1269C25.0731 14.1336 24.5065 13.2506 23.778 12.4779C23.0496 11.7329 22.1862 11.1258 21.188 10.6843C20.1897 10.1876 19.1105 9.96689 18.0043 9.96689Z" fill="#F8F9FA"/>
<path d="M22.5909 17.6931C23.0226 17.9415 23.0226 18.6037 22.5909 18.8521L19.0296 20.9492L15.4682 23.0463C15.0365 23.2947 14.47 22.9912 14.47 22.4669V18.2726V14.0784C14.47 13.5541 15.0096 13.223 15.4682 13.4989L19.0296 15.596L22.5909 17.6931Z" fill="#F8F9FA"/>
</svg>
