<svg width="165" height="37" viewBox="0 0 165 37" fill="none" xmlns="http://www.w3.org/2000/svg">
<path d="M65.6302 10.4752C67.3041 9.0422 69.2932 8.33578 71.5579 8.33578C74.1574 8.33578 76.3828 9.2844 78.2537 11.1817C79.1793 12.1101 79.8685 13.1596 80.3412 14.3101C80.7941 15.4605 81.0304 16.7119 81.0304 18.044C81.0304 20.7486 80.1049 23.0294 78.2537 24.9064C76.3828 26.8037 74.1574 27.7523 71.5579 27.7523C68.9387 27.7523 66.7133 26.8037 64.8622 24.9064C63.011 23.0092 62.0854 20.7284 62.0854 18.044V1.79633C62.0854 1.27156 62.2429 0.847706 62.5777 0.504587C62.9125 0.161468 63.3261 0 63.8381 0C64.3304 0 64.744 0.161468 65.0985 0.504587C65.4333 0.847706 65.6105 1.27156 65.6105 1.79633V10.4752H65.6302ZM71.5776 24.0991C72.4047 24.0991 73.1728 23.9376 73.9014 23.6147C74.6301 23.2917 75.2603 22.8477 75.792 22.3028C76.3237 21.7578 76.757 21.1119 77.0524 20.3651C77.3675 19.6385 77.525 18.8514 77.525 18.0239C77.525 17.1963 77.3675 16.4092 77.0524 15.6826C76.7373 14.956 76.3237 14.3101 75.792 13.745C75.2603 13.2 74.6301 12.756 73.9014 12.433C73.1728 12.1101 72.4047 11.9486 71.5776 11.9486C70.7505 11.9486 69.9628 12.1101 69.2538 12.433C68.5251 12.756 67.9146 13.2 67.3829 13.745C66.8512 14.2899 66.4376 14.9358 66.1225 15.6826C65.8074 16.4294 65.6499 17.2165 65.6499 18.044C65.6499 18.8716 65.8074 19.6587 66.1225 20.4055C66.4376 21.1523 66.8512 21.7982 67.3829 22.3431C67.9146 22.8881 68.5448 23.3321 69.2538 23.655C69.9628 23.9376 70.7308 24.0991 71.5776 24.0991Z" fill="#9533FF"/>
<path d="M102.674 18.0239C102.674 20.7285 101.748 23.0093 99.8967 24.8863C98.0259 26.7836 95.8005 27.7322 93.201 27.7322C90.5818 27.7322 88.3564 26.7836 86.5052 24.8863C84.654 22.9891 83.7285 20.7083 83.7285 18.0239C83.7285 15.3395 84.654 13.0588 86.5052 11.1615C88.3564 9.2643 90.5818 8.31567 93.201 8.31567C95.8005 8.31567 98.0259 9.2643 99.8967 11.1615C100.822 12.1102 101.512 13.1597 101.965 14.29C102.437 15.4404 102.674 16.6716 102.674 18.0239ZM93.201 11.9487C92.3739 11.9487 91.5861 12.1102 90.8772 12.4331C90.1485 12.756 89.538 13.2001 89.0063 13.745C88.4746 14.29 88.061 14.9359 87.7459 15.6826C87.4308 16.4294 87.2733 17.2166 87.2733 18.0441C87.2733 18.8716 87.4308 19.6588 87.7459 20.4056C88.061 21.1524 88.4746 21.7982 89.0063 22.3432C89.538 22.8882 90.1682 23.3322 90.8772 23.6551C91.6058 23.9781 92.3739 24.1395 93.201 24.1395C94.0281 24.1395 94.7961 23.9781 95.5248 23.6551C96.2535 23.3322 96.8837 22.8882 97.4154 22.3432C97.9471 21.7982 98.3803 21.1524 98.6758 20.4056C98.9908 19.679 99.1484 18.8918 99.1484 18.0643C99.1484 17.2368 98.9908 16.4496 98.6758 15.723C98.3607 14.9964 97.9471 14.3505 97.4154 13.7854C96.8837 13.2404 96.2535 12.7964 95.5248 12.4735C94.7961 12.1102 94.0281 11.9487 93.201 11.9487Z" fill="#9533FF"/>
<path d="M39.1425 18.0239C39.1425 20.7285 38.2169 23.0093 36.3657 24.8863C34.4949 26.7836 32.2695 27.7322 29.67 27.7322C27.0508 27.7322 24.8254 26.7836 22.9742 24.8863C21.123 22.9891 20.1974 20.7083 20.1974 18.0239C20.1974 15.3395 21.123 13.0588 22.9742 11.1615C24.8254 9.2643 27.0508 8.31567 29.67 8.31567C32.2695 8.31567 34.4949 9.2643 36.3657 11.1615C37.2913 12.1102 37.9806 13.1597 38.4335 14.29C38.9062 15.4404 39.1425 16.6716 39.1425 18.0239ZM29.6897 11.9487C28.8625 11.9487 28.0748 12.1102 27.3658 12.4331C26.6372 12.756 26.0267 13.2001 25.495 13.745C24.9633 14.29 24.5497 14.9359 24.2346 15.6826C23.9195 16.4294 23.762 17.2166 23.762 18.0441C23.762 18.8716 23.9195 19.6588 24.2346 20.4056C24.5497 21.1524 24.9633 21.7982 25.495 22.3432C26.0267 22.8882 26.6569 23.3322 27.3658 23.6551C28.0945 23.9781 28.8625 24.1395 29.6897 24.1395C30.5168 24.1395 31.2848 23.9781 32.0135 23.6551C32.7422 23.3322 33.3723 22.8882 33.9041 22.3432C34.4358 21.7982 34.869 21.1524 35.1644 20.4056C35.4795 19.679 35.6371 18.8918 35.6371 18.0643C35.6371 17.2368 35.4795 16.4496 35.1644 15.723C34.8493 14.9964 34.4358 14.3505 33.9041 13.7854C33.3723 13.2404 32.7422 12.7964 32.0135 12.4735C31.2848 12.1102 30.4971 11.9487 29.6897 11.9487Z" fill="#9533FF"/>
<path d="M126.05 25.2698C126.05 25.956 125.813 26.5413 125.341 27.0055C124.868 27.4899 124.297 27.7321 123.647 27.7321C122.977 27.7321 122.406 27.4899 121.953 27.0055C121.481 26.5211 121.244 25.9358 121.244 25.2698C121.244 24.5835 121.481 23.9982 121.953 23.534C122.426 23.0496 122.997 22.8074 123.647 22.8074C124.317 22.8074 124.888 23.0496 125.341 23.534C125.813 23.9982 126.05 24.5835 126.05 25.2698Z" fill="#FD40F8"/>
<path d="M163.211 27.732H150.371C150.115 27.732 149.898 27.6917 149.682 27.5907C149.465 27.4898 149.288 27.3687 149.13 27.2073C148.973 27.0458 148.855 26.844 148.756 26.6219C148.658 26.3999 148.618 26.1779 148.618 25.9357C148.618 25.5118 148.736 25.1284 148.973 24.8054L159.43 11.9485H150.371C149.898 11.9485 149.485 11.7669 149.15 11.4238C148.815 11.0806 148.638 10.6366 148.638 10.132C148.638 9.62744 148.815 9.20358 149.15 8.86046C149.485 8.51735 149.898 8.33569 150.371 8.33569H163.211C163.467 8.33569 163.684 8.37606 163.9 8.47698C164.117 8.5779 164.294 8.699 164.452 8.86046C164.609 9.02193 164.727 9.22377 164.826 9.44579C164.924 9.6678 164.964 9.88982 164.964 10.132C164.964 10.5962 164.826 10.9999 164.55 11.3229L154.113 24.1192H163.211C163.703 24.1192 164.097 24.3008 164.452 24.644C164.787 24.9871 164.964 25.4311 164.964 25.9155C164.964 26.4201 164.787 26.844 164.452 27.2073C164.117 27.5504 163.703 27.732 163.211 27.732Z" fill="#FD40F8"/>
<path d="M33.0376 17.6C33.3527 17.7816 33.3527 18.266 33.0376 18.4477L30.438 19.9816L27.8385 21.5156C27.5234 21.6972 27.1099 21.4752 27.1099 21.0917V18.0238V14.9559C27.1099 14.5724 27.5037 14.3302 27.8385 14.5321L30.438 16.066L33.0376 17.6Z" fill="#FD40F8"/>
<path d="M58.8754 8.84044C58.5406 8.49732 58.1074 8.31567 57.615 8.31567C57.1227 8.31567 56.7091 8.49732 56.3743 8.84044C56.0396 9.18356 55.8623 9.60742 55.8623 10.112V18.6698C55.8623 19.4166 55.7245 20.123 55.4488 20.7891C55.173 21.4551 54.7989 22.0203 54.3065 22.5047C53.8339 22.9891 53.2628 23.3927 52.6326 23.6753C52.0024 23.9579 51.3131 24.0992 50.6042 24.0992C49.8755 24.0992 49.206 23.9579 48.5758 23.6753C47.9259 23.3927 47.3745 23.0093 46.9018 22.5047C46.4292 22.0203 46.055 21.4349 45.7596 20.7891C45.4839 20.123 45.346 19.4166 45.346 18.6698V10.112C45.346 9.60742 45.1688 9.18356 44.834 8.84044C44.4992 8.49732 44.0857 8.31567 43.5933 8.31567C43.101 8.31567 42.6677 8.49732 42.333 8.84044C41.9982 9.18356 41.8209 9.60742 41.8209 10.112V18.6698C41.8209 19.901 42.0572 21.0716 42.5299 22.1615C43.0025 23.2515 43.6327 24.2203 44.4401 25.0276C45.2476 25.8551 46.1732 26.501 47.2366 26.9854C48.3001 27.4496 49.4226 27.6918 50.6042 27.712H50.6239H50.6436C51.8252 27.712 52.9477 27.4698 54.0111 26.9854C55.0746 26.501 56.0199 25.8551 56.8076 25.0276C57.615 24.2001 58.2452 23.2515 58.7179 22.1615C59.1905 21.0716 59.4268 19.901 59.4268 18.6698V10.112C59.4071 9.6276 59.2299 9.20375 58.8754 8.84044Z" fill="#9533FF"/>
<path d="M144.778 8.84044C144.443 8.49732 144.01 8.31567 143.518 8.31567C143.025 8.31567 142.612 8.49732 142.277 8.84044C141.942 9.18356 141.765 9.60742 141.765 10.112V18.6698C141.765 19.4166 141.627 20.123 141.351 20.7891C141.076 21.4551 140.701 22.0203 140.209 22.5047C139.736 22.9891 139.165 23.3927 138.535 23.6753C137.905 23.9579 137.216 24.0992 136.507 24.0992C135.778 24.0992 135.108 23.9579 134.478 23.6753C133.828 23.3927 133.277 23.0093 132.804 22.5047C132.332 22.0203 131.958 21.4349 131.662 20.7891C131.386 20.123 131.249 19.4166 131.249 18.6698V10.112C131.249 9.60742 131.071 9.18356 130.737 8.84044C130.402 8.49732 129.988 8.31567 129.496 8.31567C129.004 8.31567 128.57 8.49732 128.235 8.84044C127.901 9.18356 127.723 9.60742 127.723 10.112V18.6698C127.723 19.901 127.96 21.0716 128.432 22.1615C128.905 23.2515 129.535 24.2203 130.343 25.0276C131.15 25.8551 132.076 26.501 133.139 26.9854C134.203 27.4496 135.325 27.6918 136.507 27.712H136.526H136.546C137.728 27.712 138.85 27.4698 139.914 26.9854C140.977 26.501 141.922 25.8551 142.71 25.0276C143.518 24.2001 144.148 23.2515 144.62 22.1615C145.093 21.0716 145.329 19.901 145.329 18.6698V10.112C145.29 9.6276 145.132 9.20375 144.778 8.84044Z" fill="#FD40F8"/>
<path d="M7.57401 33.4642C11.6505 33.4642 13.679 31.5266 13.679 27.6312V25.512C12.0444 26.9248 10.1932 27.6312 8.14512 27.6312C5.66375 27.6312 3.7338 26.9046 2.37495 25.4312C0.996417 23.9578 0.307148 21.8386 0.307148 19.0734V10.112C0.267761 9.10278 1.19335 8.29544 2.19771 8.35599C3.1233 8.41654 3.91104 9.18351 3.85196 10.112V19.6386C3.85196 21.1523 4.26552 22.3431 5.11234 23.211C5.93946 24.0587 7.12107 24.5028 8.63746 24.5028C10.0948 24.5028 11.2961 23.9982 12.261 22.989C13.226 21.9798 13.6987 20.6276 13.6987 18.9523V10.112C13.6396 9.0826 14.5849 8.25507 15.5892 8.31562C16.5148 8.37617 17.3026 9.16333 17.2435 10.112V27.2477C17.2435 30.2551 16.3967 32.556 14.7227 34.1707C13.0291 35.7652 10.6265 36.5725 7.51493 36.5725C5.70314 36.5725 3.61564 36.2294 1.21304 35.5431C0.149601 35.1395 -0.244267 33.9487 0.149601 33.1615C0.464695 32.5762 1.23274 32.2331 2.02047 32.4147C3.37932 33.0404 5.28958 33.4642 7.57401 33.4642Z" fill="#9533FF"/>
<path d="M119.295 9.14303C119.216 9.08248 119.117 9.04212 118.999 9.00175C117.542 8.47698 116.045 8.23478 114.549 8.31551C113.603 8.35588 111.614 8.47698 109.665 9.80909C109.448 9.95037 109.074 10.2128 108.68 10.5962C107.341 11.9485 106.651 13.9063 106.651 16.4091V26.0164C106.651 26.0972 106.651 26.1981 106.671 26.299C106.829 27.1063 107.498 27.6917 108.306 27.7118H108.325C109.133 27.7118 109.822 27.1265 109.98 26.299C109.999 26.1981 109.999 26.0972 109.999 26.0164V16.4293C109.999 15.1173 110.275 14.0476 110.846 13.2806C110.905 13.1999 111.102 12.9577 111.378 12.7357C112.54 11.7265 113.997 11.666 114.785 11.6256C115.888 11.5852 116.971 11.7871 118.015 12.2311C118.468 12.4128 118.96 12.4329 119.373 12.2311C119.669 12.0898 119.925 11.888 120.063 11.6256C120.476 10.9192 120.26 9.74854 119.295 9.14303Z" fill="#9533FF"/>
</svg>
