<svg width="226" height="50" viewBox="0 0 226 50" fill="none" xmlns="http://www.w3.org/2000/svg">
<path d="M89.9132 14.3212C92.2065 12.362 94.9315 11.3962 98.0342 11.3962C101.596 11.3962 104.644 12.6932 107.207 15.287C108.475 16.5563 109.42 17.9912 110.067 19.564C110.688 21.1369 111.012 22.8477 111.012 24.6689C111.012 28.3664 109.743 31.4845 107.207 34.0508C104.644 36.6446 101.596 37.9415 98.0342 37.9415C94.4459 37.9415 91.3971 36.6446 88.861 34.0508C86.3249 31.457 85.0569 28.3388 85.0569 24.6689V2.45585C85.0569 1.73841 85.2727 1.15894 85.7314 0.689845C86.19 0.220751 86.7566 0 87.4581 0C88.1326 0 88.6991 0.220751 89.1848 0.689845C89.6434 1.15894 89.8863 1.73841 89.8863 2.45585V14.3212H89.9132ZM98.0612 32.947C99.1943 32.947 100.247 32.7263 101.245 32.2848C102.243 31.8433 103.106 31.2362 103.835 30.4912C104.563 29.7461 105.157 28.8631 105.562 27.8422C105.993 26.8488 106.209 25.7726 106.209 24.6413C106.209 23.5099 105.993 22.4338 105.562 21.4404C105.13 20.447 104.563 19.564 103.835 18.7914C103.106 18.0464 102.243 17.4393 101.245 16.9978C100.247 16.5563 99.1943 16.3355 98.0612 16.3355C96.928 16.3355 95.8488 16.5563 94.8776 16.9978C93.8793 17.4393 93.0429 18.0464 92.3145 18.7914C91.586 19.5364 91.0194 20.4194 90.5877 21.4404C90.1561 22.4614 89.9402 23.5375 89.9402 24.6689C89.9402 25.8002 90.1561 26.8764 90.5877 27.8974C91.0194 28.9183 91.586 29.8013 92.3145 30.5464C93.0429 31.2914 93.9063 31.8985 94.8776 32.34C95.8488 32.7263 96.901 32.947 98.0612 32.947Z" fill="#F8F9FA"/>
<path d="M140.663 24.6413C140.663 28.3389 139.394 31.457 136.858 34.0232C134.295 36.617 131.247 37.9139 127.685 37.9139C124.097 37.9139 121.048 36.617 118.512 34.0232C115.976 31.4294 114.708 28.3113 114.708 24.6413C114.708 20.9713 115.976 17.8532 118.512 15.2594C121.048 12.6656 124.097 11.3687 127.685 11.3687C131.247 11.3687 134.295 12.6656 136.858 15.2594C138.126 16.5563 139.071 17.9912 139.691 19.5364C140.339 21.1093 140.663 22.7925 140.663 24.6413ZM127.685 16.3355C126.552 16.3355 125.473 16.5563 124.502 16.9978C123.503 17.4393 122.667 18.0464 121.938 18.7914C121.21 19.5364 120.643 20.4194 120.212 21.4404C119.78 22.4614 119.564 23.5375 119.564 24.6689C119.564 25.8002 119.78 26.8764 120.212 27.8973C120.643 28.9183 121.21 29.8013 121.938 30.5464C122.667 31.2914 123.53 31.8985 124.502 32.34C125.5 32.7815 126.552 33.0022 127.685 33.0022C128.818 33.0022 129.871 32.7815 130.869 32.34C131.867 31.8985 132.73 31.2914 133.459 30.5464C134.187 29.8013 134.781 28.9183 135.186 27.8973C135.617 26.904 135.833 25.8278 135.833 24.6965C135.833 23.5651 135.617 22.489 135.186 21.4956C134.754 20.5022 134.187 19.6192 133.459 18.8466C132.73 18.1015 131.867 17.4945 130.869 17.053C129.871 16.5563 128.818 16.3355 127.685 16.3355Z" fill="#F8F9FA"/>
<path d="M53.6252 24.6413C53.6252 28.3389 52.3571 31.457 49.821 34.0232C47.2579 36.617 44.2092 37.9139 40.6478 37.9139C37.0595 37.9139 34.0108 36.617 31.4747 34.0232C28.9386 31.4294 27.6705 28.3113 27.6705 24.6413C27.6705 20.9713 28.9386 17.8532 31.4747 15.2594C34.0108 12.6656 37.0595 11.3687 40.6478 11.3687C44.2092 11.3687 47.2579 12.6656 49.821 15.2594C51.0891 16.5563 52.0334 17.9912 52.6539 19.5364C53.3014 21.1093 53.6252 22.7925 53.6252 24.6413ZM40.6748 16.3355C39.5417 16.3355 38.4625 16.5563 37.4912 16.9978C36.4929 17.4393 35.6566 18.0464 34.9281 18.7914C34.1996 19.5364 33.6331 20.4194 33.2014 21.4404C32.7697 22.4614 32.5539 23.5375 32.5539 24.6689C32.5539 25.8002 32.7697 26.8764 33.2014 27.8973C33.6331 28.9183 34.1996 29.8013 34.9281 30.5464C35.6566 31.2914 36.5199 31.8985 37.4912 32.34C38.4895 32.7815 39.5417 33.0022 40.6748 33.0022C41.808 33.0022 42.8602 32.7815 43.8585 32.34C44.8567 31.8985 45.7201 31.2914 46.4485 30.5464C47.177 29.8013 47.7706 28.9183 48.1753 27.8973C48.6069 26.904 48.8228 25.8278 48.8228 24.6965C48.8228 23.5651 48.6069 22.489 48.1753 21.4956C47.7436 20.5022 47.177 19.6192 46.4485 18.8466C45.7201 18.1015 44.8567 17.4945 43.8585 17.053C42.8602 16.5563 41.781 16.3355 40.6748 16.3355Z" fill="#F8F9FA"/>
<path d="M172.688 34.5475C172.688 35.4857 172.364 36.2859 171.716 36.9205C171.069 37.5828 170.286 37.9139 169.396 37.9139C168.479 37.9139 167.696 37.5828 167.076 36.9205C166.428 36.2583 166.105 35.4581 166.105 34.5475C166.105 33.6093 166.428 32.8091 167.076 32.1744C167.723 31.5122 168.506 31.181 169.396 31.181C170.313 31.181 171.096 31.5122 171.716 32.1744C172.364 32.8091 172.688 33.6093 172.688 34.5475Z" fill="#FD40F8"/>
<path d="M223.599 37.9139H206.008C205.657 37.9139 205.36 37.8587 205.064 37.7208C204.767 37.5828 204.524 37.4172 204.308 37.1965C204.092 36.9757 203.93 36.6998 203.795 36.3962C203.661 36.0927 203.607 35.7892 203.607 35.4581C203.607 34.8786 203.769 34.3543 204.092 33.9128L218.419 16.3355H206.008C205.36 16.3355 204.794 16.0872 204.335 15.6181C203.876 15.149 203.634 14.5419 203.634 13.8521C203.634 13.1622 203.876 12.5828 204.335 12.1137C204.794 11.6446 205.36 11.3962 206.008 11.3962H223.599C223.95 11.3962 224.246 11.4514 224.543 11.5894C224.84 11.7274 225.083 11.8929 225.299 12.1137C225.514 12.3344 225.676 12.6104 225.811 12.9139C225.946 13.2174 226 13.521 226 13.8521C226 14.4867 225.811 15.0386 225.433 15.4801L211.134 32.9746H223.599C224.273 32.9746 224.813 33.223 225.299 33.6921C225.757 34.1611 226 34.7682 226 35.4305C226 36.1203 225.757 36.6998 225.299 37.1965C224.84 37.6656 224.273 37.9139 223.599 37.9139Z" fill="#FD40F8"/>
<path d="M45.2614 24.0618C45.6931 24.3101 45.6931 24.9724 45.2614 25.2207L41.7 27.3179L38.1387 29.415C37.707 29.6633 37.1404 29.3598 37.1404 28.8355V24.6413V20.447C37.1404 19.9227 37.68 19.5916 38.1387 19.8675L41.7 21.9647L45.2614 24.0618Z" fill="#FD40F8"/>
<path d="M80.6591 12.0861C80.2004 11.617 79.6069 11.3687 78.9324 11.3687C78.2579 11.3687 77.6913 11.617 77.2326 12.0861C76.774 12.5552 76.5312 13.1347 76.5312 13.8245V25.5243C76.5312 26.5453 76.3423 27.511 75.9646 28.4216C75.5869 29.3322 75.0743 30.1049 74.3998 30.7671C73.7522 31.4294 72.9698 31.9812 72.1065 32.3676C71.2431 32.7539 70.2988 32.947 69.3275 32.947C68.3293 32.947 67.412 32.7539 66.5486 32.3676C65.6583 31.9812 64.9028 31.457 64.2553 30.7671C63.6078 30.1049 63.0952 29.3046 62.6905 28.4216C62.3128 27.511 62.1239 26.5453 62.1239 25.5243V13.8245C62.1239 13.1347 61.8811 12.5552 61.4224 12.0861C60.9638 11.617 60.3972 11.3687 59.7227 11.3687C59.0482 11.3687 58.4546 11.617 57.996 12.0861C57.5373 12.5552 57.2945 13.1347 57.2945 13.8245V25.5243C57.2945 27.2075 57.6183 28.8079 58.2658 30.298C58.9133 31.7881 59.7767 33.1126 60.8828 34.2163C61.989 35.3477 63.2571 36.2307 64.714 36.8929C66.1709 37.5276 67.7087 37.8587 69.3275 37.8863H69.3545H69.3815C71.0003 37.8863 72.5381 37.5552 73.9951 36.8929C75.452 36.2307 76.747 35.3477 77.8262 34.2163C78.9324 33.085 79.7957 31.7881 80.4433 30.298C81.0908 28.8079 81.4145 27.2075 81.4145 25.5243V13.8245C81.3876 13.1623 81.1447 12.5828 80.6591 12.0861Z" fill="#F8F9FA"/>
<path d="M198.345 12.0861C197.887 11.617 197.293 11.3687 196.619 11.3687C195.944 11.3687 195.378 11.617 194.919 12.0861C194.46 12.5552 194.218 13.1347 194.218 13.8245V25.5243C194.218 26.5453 194.029 27.511 193.651 28.4216C193.273 29.3322 192.761 30.1049 192.086 30.7671C191.439 31.4294 190.656 31.9812 189.793 32.3676C188.929 32.7539 187.985 32.947 187.014 32.947C186.016 32.947 185.098 32.7539 184.235 32.3676C183.345 31.9812 182.589 31.457 181.942 30.7671C181.294 30.1049 180.782 29.3046 180.377 28.4216C179.999 27.511 179.81 26.5453 179.81 25.5243V13.8245C179.81 13.1347 179.567 12.5552 179.109 12.0861C178.65 11.617 178.084 11.3687 177.409 11.3687C176.735 11.3687 176.141 11.617 175.682 12.0861C175.224 12.5552 174.981 13.1347 174.981 13.8245V25.5243C174.981 27.2075 175.305 28.8079 175.952 30.298C176.6 31.7881 177.463 33.1126 178.569 34.2163C179.675 35.3477 180.943 36.2307 182.4 36.8929C183.857 37.5276 185.395 37.8587 187.014 37.8863H187.041H187.068C188.687 37.8863 190.224 37.5552 191.681 36.8929C193.138 36.2307 194.433 35.3477 195.513 34.2163C196.619 33.085 197.482 31.7881 198.13 30.298C198.777 28.8079 199.101 27.2075 199.101 25.5243V13.8245C199.047 13.1623 198.831 12.5828 198.345 12.0861Z" fill="#FD40F8"/>
<path d="M10.3764 45.7505C15.9612 45.7505 18.7402 43.1015 18.7402 37.7759V34.8786C16.5008 36.8101 13.9647 37.7759 11.1588 37.7759C7.75933 37.7759 5.1153 36.7826 3.25368 34.7682C1.36509 32.7539 0.420792 29.8565 0.420792 26.0762V13.8245C0.366832 12.4448 1.63489 11.3411 3.01086 11.4238C4.27892 11.5066 5.35812 12.5552 5.27718 13.8245V26.8488C5.27718 28.9183 5.84376 30.5464 7.00389 31.7329C8.13705 32.8918 9.75584 33.4989 11.8333 33.4989C13.8298 33.4989 15.4756 32.809 16.7976 31.4294C18.1196 30.0497 18.7671 28.2009 18.7671 25.9106V13.8245C18.6862 12.4172 19.9812 11.2859 21.3572 11.3687C22.6253 11.4514 23.7045 12.5276 23.6235 13.8245V37.2517C23.6235 41.3631 22.4634 44.5088 20.1701 46.7163C17.8498 48.8962 14.5583 50 10.2954 50C7.81329 50 4.95342 49.5309 1.66187 48.5927C0.204953 48.0408 -0.334646 46.4128 0.204953 45.3366C0.636631 44.5364 1.68885 44.0673 2.76804 44.3157C4.62966 45.1711 7.24671 45.7505 10.3764 45.7505Z" fill="#F8F9FA"/>
<path d="M163.434 12.5C163.326 12.4172 163.191 12.362 163.029 12.3068C161.032 11.5894 158.982 11.2583 156.931 11.3686C155.636 11.4238 152.911 11.5894 150.24 13.4106C149.944 13.6037 149.431 13.9625 148.891 14.4867C147.057 16.3355 146.112 19.0121 146.112 22.4338V35.5684C146.112 35.6788 146.112 35.8168 146.139 35.9547C146.355 37.0585 147.273 37.8587 148.379 37.8863H148.406C149.512 37.8863 150.456 37.0861 150.672 35.9547C150.699 35.8168 150.699 35.6788 150.699 35.5684V22.4614C150.699 20.6678 151.077 19.2053 151.859 18.1567C151.94 18.0463 152.21 17.7152 152.588 17.4117C154.179 16.032 156.176 15.9492 157.255 15.894C158.766 15.8388 160.25 16.1148 161.68 16.7218C162.3 16.9702 162.975 16.9978 163.541 16.7218C163.946 16.5287 164.297 16.2528 164.486 15.894C165.052 14.9282 164.756 13.3278 163.434 12.5Z" fill="#F8F9FA"/>
</svg>
