<svg width="16" height="16" viewBox="0 0 16 16" fill="none" xmlns="http://www.w3.org/2000/svg">
<path d="M11 2.00004C11.1751 1.82494 11.383 1.68605 11.6117 1.59129C11.8405 1.49653 12.0857 1.44775 12.3333 1.44775C12.581 1.44775 12.8262 1.49653 13.0549 1.59129C13.2837 1.68605 13.4916 1.82494 13.6667 2.00004C13.8418 2.17513 13.9807 2.383 14.0754 2.61178C14.1702 2.84055 14.219 3.08575 14.219 3.33337C14.219 3.58099 14.1702 3.82619 14.0754 4.05497C13.9807 4.28374 13.8418 4.49161 13.6667 4.66671L4.66667 13.6667L1 14.6667L2 11L11 2.00004Z" stroke="#373743" stroke-width="2" stroke-linecap="round" stroke-linejoin="round"/>
</svg>
