<svg width="15" height="14" viewBox="0 0 15 14" fill="none" xmlns="http://www.w3.org/2000/svg">
<path fill-rule="evenodd" clip-rule="evenodd" d="M1.506 0.891232C5.45715 -0.0119211 9.54285 -0.0119211 13.494 0.891232C13.9203 0.988635 14.3024 1.23907 14.5765 1.60073C14.8506 1.96239 15.0001 2.41338 15 2.87843V11.1216C15 12.0795 14.372 12.9083 13.494 13.1088C9.54286 14.012 5.45714 14.012 1.506 13.1088C1.07969 13.0114 0.697599 12.761 0.423516 12.3993C0.149432 12.0377 -5.80309e-05 11.5867 1.68988e-08 11.1216V2.87843C1.68988e-08 1.92057 0.628 1.09177 1.506 0.891232V0.891232ZM6.777 4.42297C6.70171 4.36952 6.61423 4.33886 6.52389 4.33425C6.43355 4.32964 6.34373 4.35125 6.264 4.39679C6.18427 4.44232 6.1176 4.51007 6.07111 4.59283C6.02462 4.67558 6.00005 4.77023 6 4.8667V9.13337C6.00005 9.22984 6.02462 9.32449 6.07111 9.40724C6.1176 9.48999 6.18427 9.55774 6.264 9.60328C6.34373 9.64881 6.43355 9.67042 6.52389 9.66581C6.61423 9.6612 6.70171 9.63054 6.777 9.5771L9.777 7.44377C9.84548 7.39506 9.90163 7.32908 9.94046 7.25167C9.97929 7.17426 9.99961 7.08783 9.99961 7.00003C9.99961 6.91224 9.97929 6.8258 9.94046 6.7484C9.90163 6.67099 9.84548 6.605 9.777 6.5563L6.777 4.42297V4.42297Z" fill="white"/>
</svg>
